<svg viewBox="0 0 476 334" xmlns="http://www.w3.org/2000/svg">
	<path style="fill:#0087fe;filter: drop-shadow(2px 2px 0 #FFF);" d="M 232 132 L 188 132 L 188 188 L 244 188 L 288 188 L 288 208 L 188 209 L 160 326 L 125 326 C 144 272 148 222 148 209 L 74 209 L 68 188 L 148 188 L 148 128 L 124 124 L 116 102 L 36 84 L 4 4 C 52 52 424 52 472 4 L 440 84 L 360 102 L 352 124 L 328 128 L 328 188 L 408 188 L 402 209 L 328 209 C 328 222 333 272 356 326 L 320 326 L 288 209 L 288 132 L 244 132 L 244 188 L 232 188 L 232 132 Z"></path>
</svg>